<!--
  - CloudLinux Software Inc 2019-2021 All Rights Reserved
  -
  - Licensed under the Apache License, Version 2.0 (the "License");
  - you may not use this file except in compliance with the License.
  - You may obtain a copy of the License at
  -
  -    http://www.apache.org/licenses/LICENSE-2.0
  -
  - Unless required by applicable law or agreed to in writing, software
  - distributed under the License is distributed on an "AS IS" BASIS,
  - WITHOUT WARRANTIES OR CONDITIONS OF ANY KIND, either express or implied.
  - See the License for the specific language governing permissions and
  - limitations under the License.
  -->

<svg width="221" height="68" viewBox="0 0 221 68" fill="none" xmlns="http://www.w3.org/2000/svg">
<mask id="mask0" mask-type="alpha" maskUnits="userSpaceOnUse" x="0" y="0" width="221" height="68">
<rect width="221" height="68" fill="#C4C4C4"/>
</mask>
<g mask="url(#mask0)">
<path d="M62.104 35.2152L60.7234 52.4723C60.7033 52.7242 60.574 52.9548 60.3696 53.1035L45.0664 64.2331C44.4941 64.6493 43.6912 64.2405 43.6912 63.5328L43.6912 44.1832C43.6912 43.8654 43.8653 43.5731 44.1447 43.4218L60.8284 34.3848C61.4325 34.0576 62.1588 34.5304 62.104 35.2152Z" stroke="black" stroke-width="2.2"/>
<path d="M43.7713 31.4933L59.3159 31.8312L42.6423 40.8628L35.9171 36.4914L43.7713 31.4933Z" stroke="black" stroke-width="2.2"/>
<path d="M34.058 39.3436L40.6204 43.6092L40.6204 63.6159L33.6864 52.7196L34.058 39.3436Z" stroke="black" stroke-width="2.2"/>
<path d="M19.41 64.2912L4.90558 54.8395C4.6938 54.7015 4.55289 54.4778 4.51985 54.2272L2.0463 35.4673C1.95379 34.7657 2.69632 34.2554 3.31816 34.5933L20.3203 43.8309C20.5996 43.9826 20.7733 44.275 20.7728 44.5928L20.7486 63.5668C20.7477 64.2538 19.9855 64.6663 19.41 64.2912Z" stroke="black" stroke-width="2.2"/>
<path d="M30.6067 52.2825L23.9221 63.2858L23.9466 44.0847L30.6067 40.1504L30.6067 52.2825Z" stroke="black" stroke-width="2.2"/>
<path d="M28.6721 37.3678L22.0997 41.3112L4.47789 31.7954L18.3408 31.3688L28.6721 37.3678Z" stroke="black" stroke-width="2.2"/>
<path d="M14.4661 11.693L29.6821 2.90121C29.9102 2.76938 30.186 2.74862 30.4313 2.8448L48.0085 9.73608C48.6673 9.9944 48.7549 10.8911 48.1585 11.272L31.8202 21.7065C31.5596 21.873 31.23 21.8878 30.9555 21.7454L14.5006 13.2114C13.8935 12.8966 13.8739 12.0352 14.4661 11.693Z" stroke="black" stroke-width="2.2"/>
<path d="M21.1692 27.3959L14.2879 16.8818L30.1714 24.9654L30.1714 32.7972L21.1692 27.3959Z" stroke="black" stroke-width="2.2"/>
<path d="M33.2422 32.8096L33.2422 24.9007L50.0253 14.4113L43.0793 26.9802L33.2422 32.8096Z" stroke="black" stroke-width="2.2"/>
<path d="M85.6935 36.4817L83.4461 38.8899V45.1376H80.0001V25.1009H83.4461V34.5L85.353 32.1193L91.1555 25.1009H95.3234L87.9546 33.9771L95.7457 45.1376H91.6594L85.6935 36.4817Z" fill="black"/>
<path d="M105.88 43.6789C104.908 44.8349 103.528 45.4128 101.739 45.4128C100.141 45.4128 98.9284 44.9404 98.1021 43.9954C97.2848 43.0505 96.8762 41.6835 96.8762 39.8945V30.2477H100.186V39.8532C100.186 41.7431 100.962 42.6881 102.515 42.6881C104.122 42.6881 105.208 42.1055 105.771 40.9404V30.2477H109.08V45.1376H105.961L105.88 43.6789Z" fill="black"/>
<path d="M125.384 37.844C125.384 40.156 124.871 41.9954 123.845 43.3624C122.828 44.7294 121.425 45.4128 119.637 45.4128C117.911 45.4128 116.567 44.7844 115.605 43.5275L115.441 45.1376H112.445V24H115.755V31.6789C116.708 30.5413 117.993 29.9725 119.609 29.9725C121.407 29.9725 122.819 30.6468 123.845 31.9954C124.871 33.344 125.384 35.2294 125.384 37.6514V37.844ZM122.075 37.555C122.075 35.9404 121.793 34.7294 121.23 33.922C120.667 33.1147 119.85 32.711 118.778 32.711C117.344 32.711 116.336 33.344 115.755 34.6101V40.7477C116.345 42.0413 117.362 42.6881 118.806 42.6881C119.841 42.6881 120.64 42.2982 121.203 41.5183C121.766 40.7385 122.056 39.5596 122.075 37.9817V37.555Z" fill="black"/>
<path d="M134.66 45.4128C132.563 45.4128 130.86 44.7477 129.552 43.4174C128.254 42.078 127.605 40.2982 127.605 38.078V37.6651C127.605 36.1789 127.886 34.8532 128.449 33.6881C129.021 32.5138 129.82 31.6009 130.846 30.9495C131.873 30.2982 133.017 29.9725 134.279 29.9725C136.286 29.9725 137.834 30.6193 138.924 31.9128C140.022 33.2064 140.572 35.0367 140.572 37.4037V38.7523H130.942C131.042 39.9817 131.446 40.9541 132.154 41.6697C132.871 42.3853 133.77 42.7431 134.851 42.7431C136.367 42.7431 137.602 42.1239 138.556 40.8853L140.34 42.6055C139.75 43.4954 138.96 44.1881 137.97 44.6835C136.989 45.1697 135.886 45.4128 134.66 45.4128ZM134.265 32.656C133.357 32.656 132.622 32.9771 132.059 33.6193C131.505 34.2615 131.151 35.156 130.996 36.3028H137.303V36.055C137.23 34.9358 136.935 34.0917 136.417 33.5229C135.9 32.945 135.182 32.656 134.265 32.656Z" fill="black"/>
<path d="M150.869 33.3028C150.433 33.2294 149.984 33.1927 149.52 33.1927C148.004 33.1927 146.982 33.7798 146.456 34.9541V45.1376H143.146V30.2477H146.306L146.388 31.9128C147.187 30.6193 148.295 29.9725 149.711 29.9725C150.183 29.9725 150.574 30.0367 150.883 30.1651L150.869 33.3028Z" fill="black"/>
<path d="M156.726 42.3578H165.729V45.1376H153.28V25.1009H156.726V42.3578Z" fill="black"/>
<path d="M167.432 37.555C167.432 36.0963 167.718 34.7844 168.29 33.6193C168.862 32.445 169.666 31.5459 170.701 30.922C171.736 30.289 172.926 29.9725 174.269 29.9725C176.258 29.9725 177.87 30.6193 179.105 31.9128C180.349 33.2064 181.021 34.922 181.121 37.0596L181.134 37.844C181.134 39.3119 180.853 40.6239 180.29 41.7798C179.736 42.9358 178.937 43.8303 177.893 44.4633C176.857 45.0963 175.659 45.4128 174.297 45.4128C172.217 45.4128 170.551 44.7156 169.298 43.3211C168.054 41.9174 167.432 40.0505 167.432 37.7202V37.555ZM170.742 37.844C170.742 39.3761 171.055 40.578 171.681 41.4495C172.308 42.3119 173.18 42.7431 174.297 42.7431C175.414 42.7431 176.281 42.3028 176.898 41.422C177.525 40.5413 177.838 39.2523 177.838 37.555C177.838 36.0505 177.516 34.8578 176.871 33.9771C176.235 33.0963 175.368 32.656 174.269 32.656C173.189 32.656 172.331 33.0917 171.695 33.9633C171.059 34.8257 170.742 36.1193 170.742 37.844Z" fill="black"/>
<path d="M183.354 37.5826C183.354 35.2706 183.89 33.4266 184.962 32.0505C186.042 30.6651 187.473 29.9725 189.252 29.9725C190.932 29.9725 192.253 30.5642 193.216 31.7477L193.366 30.2477H196.349V44.6835C196.349 46.6376 195.745 48.1789 194.537 49.3073C193.339 50.4358 191.718 51 189.675 51C188.594 51 187.536 50.7706 186.501 50.3119C185.475 49.8624 184.694 49.2706 184.158 48.5367L185.725 46.5275C186.742 47.7477 187.995 48.3578 189.484 48.3578C190.583 48.3578 191.45 48.055 192.085 47.4495C192.721 46.8532 193.039 45.9725 193.039 44.8073V43.8028C192.085 44.8761 190.814 45.4128 189.225 45.4128C187.5 45.4128 186.088 44.7202 184.989 43.3349C183.899 41.9495 183.354 40.0321 183.354 37.5826ZM186.651 37.8716C186.651 39.367 186.95 40.5459 187.55 41.4083C188.158 42.2615 188.998 42.6881 190.07 42.6881C191.404 42.6881 192.394 42.1101 193.039 40.9541V34.4037C192.412 33.2752 191.432 32.711 190.097 32.711C189.007 32.711 188.158 33.1468 187.55 34.0183C186.95 34.8899 186.651 36.1743 186.651 37.8716Z" fill="black"/>
<path d="M203.282 45.1376H199.972V30.2477H203.282V45.1376ZM199.768 26.3807C199.768 25.867 199.926 25.4404 200.244 25.1009C200.571 24.7615 201.034 24.5917 201.634 24.5917C202.233 24.5917 202.696 24.7615 203.023 25.1009C203.35 25.4404 203.513 25.867 203.513 26.3807C203.513 26.8853 203.35 27.3073 203.023 27.6468C202.696 27.9771 202.233 28.1422 201.634 28.1422C201.034 28.1422 200.571 27.9771 200.244 27.6468C199.926 27.3073 199.768 26.8853 199.768 26.3807Z" fill="black"/>
<path d="M212.952 42.7431C213.779 42.7431 214.464 42.5 215.009 42.0138C215.554 41.5275 215.845 40.9266 215.881 40.211H219C218.964 41.1376 218.678 42.0046 218.142 42.8119C217.606 43.6101 216.88 44.2431 215.963 44.711C215.046 45.1789 214.056 45.4128 212.993 45.4128C210.932 45.4128 209.298 44.7385 208.09 43.3899C206.882 42.0413 206.278 40.1789 206.278 37.8028V37.4587C206.278 35.1927 206.878 33.3807 208.076 32.0229C209.275 30.656 210.909 29.9725 212.98 29.9725C214.732 29.9725 216.158 30.4908 217.257 31.5275C218.364 32.555 218.946 33.9083 219 35.5872H215.881C215.845 34.7339 215.554 34.0321 215.009 33.4817C214.473 32.9312 213.788 32.656 212.952 32.656C211.881 32.656 211.055 33.0505 210.473 33.8394C209.892 34.6193 209.597 35.8073 209.588 37.4037V37.9404C209.588 39.555 209.874 40.7615 210.446 41.5596C211.027 42.3486 211.863 42.7431 212.952 42.7431Z" fill="black"/>
</g>
</svg>
