<!--
  - CloudLinux Software Inc 2019-2021 All Rights Reserved
  -
  - Licensed under the Apache License, Version 2.0 (the "License");
  - you may not use this file except in compliance with the License.
  - You may obtain a copy of the License at
  -
  -    http://www.apache.org/licenses/LICENSE-2.0
  -
  - Unless required by applicable law or agreed to in writing, software
  - distributed under the License is distributed on an "AS IS" BASIS,
  - WITHOUT WARRANTIES OR CONDITIONS OF ANY KIND, either express or implied.
  - See the License for the specific language governing permissions and
  - limitations under the License.
  -->

<svg width="33" height="23" viewBox="0 0 33 23" fill="none" xmlns="http://www.w3.org/2000/svg">
<path fill-rule="evenodd" clip-rule="evenodd" d="M6.73427 20.0517H7.97759C7.91897 17.7838 7.72821 15.282 7.4053 12.547H5.93085L4.12629 18.0614H4.11524L2.32172 12.547H0.78072C0.487367 14.882 0.303812 17.3835 0.230774 20.0517H1.36406C1.40058 17.8575 1.48851 15.8638 1.6281 14.0706H1.63892L3.5206 20.0517H4.46721L6.36019 14.0706H6.37124C6.56921 15.9383 6.6903 17.9316 6.73427 20.0517ZM11.3666 20.5653C12.1955 19.3066 12.8634 17.29 13.3697 14.5148V14.5143H12.1922C11.9791 16.2191 11.605 17.7947 11.0694 19.2396C11.1062 18.9505 11.0144 18.443 10.7943 17.716L9.81506 14.5145H8.5936L9.95802 18.7952C10.1632 19.4398 10.266 19.8656 10.266 20.0738C10.266 20.3775 10.1341 20.652 9.87032 20.8962C9.64977 21.0966 9.3605 21.1966 9.0006 21.1966C8.80262 21.1966 8.63036 21.1845 8.48356 21.1631V21.8323C8.78389 21.9566 9.03735 22.0192 9.24277 22.0192C10.0133 22.0192 10.7208 21.5343 11.3666 20.5653Z" fill="#5D87A1"/>
<path fill-rule="evenodd" clip-rule="evenodd" d="M23.8106 19.5936L25.1601 20.2677L24.681 21.1026L22.924 20.0673C22.6322 20.1545 22.3119 20.1978 21.9628 20.1978C21.0271 20.1978 20.3274 19.9221 19.8632 19.3715C19.3558 18.7637 19.1022 17.8056 19.1022 16.4994C19.1022 15.1707 19.3883 14.1656 19.9615 13.4831C20.4832 12.859 21.2126 12.547 22.1476 12.547C24.0544 12.547 25.0075 13.7768 25.0075 16.2351C25.0075 17.571 24.7214 18.5797 24.1477 19.2617C24.0447 19.3864 23.9302 19.4941 23.8106 19.5936ZM26.0738 20.0882H29.5641V19.1735H27.2479V12.6576H26.0738V20.0882ZM20.7883 18.6013C20.491 18.1173 20.3424 17.3401 20.3424 16.2685C20.3424 14.3975 20.9039 13.461 22.0281 13.461C22.6158 13.461 23.0465 13.685 23.3219 14.132C23.6187 14.6167 23.7681 15.3869 23.7681 16.4437C23.7681 18.33 23.2061 19.2732 22.0825 19.2732C21.4946 19.2735 21.0639 19.0502 20.7883 18.6013ZM17.9058 19.5806C18.3622 19.1757 18.5906 18.6587 18.5906 18.0286C18.5906 17.3067 18.3049 16.869 17.733 16.4583C17.733 16.4583 16.6783 15.85 16.1569 15.5636C15.5837 15.2413 15.2731 14.8592 15.2731 14.4199C15.2731 14.1324 15.3987 13.8981 15.6025 13.715C15.8045 13.5312 16.0951 13.4396 16.4715 13.4396C16.9361 13.4396 17.4072 13.5422 17.8844 13.7474L18.1675 13.1091C17.6095 12.7434 16.99 12.5586 16.3086 12.5586C15.6488 12.5586 15.1105 12.7436 14.6933 13.1149C14.2766 13.4848 14.0684 13.971 14.0684 14.5732C14.0684 15.3009 14.3476 15.7426 14.9053 16.1541C14.9053 16.1541 15.9344 16.752 16.4489 17.038C17.0069 17.354 17.311 17.7313 17.311 18.1728C17.311 18.5232 17.1617 18.8003 16.9112 18.9978C16.6605 19.1946 16.3148 19.2939 15.8724 19.2939C15.4011 19.2939 14.8761 19.1478 14.2963 18.8539L13.9808 19.4919C14.6546 19.9538 15.3508 20.186 16.0688 20.186C16.8364 20.186 17.449 19.9839 17.9058 19.5806Z" fill="#F8981D"/>
<path fill-rule="evenodd" clip-rule="evenodd" d="M29.543 10.1942C30.0077 9.99851 30.5615 9.92687 31.2767 9.94496C31.2569 9.81193 31.0021 9.65419 30.8152 9.53845C30.752 9.49929 30.6965 9.46494 30.6605 9.43799C30.3747 9.23305 30.0718 9.01908 29.7678 8.83271C29.67 8.77318 29.529 8.72362 29.3934 8.67596C29.3061 8.6453 29.2212 8.61544 29.1514 8.58422C29.0799 8.55518 28.9823 8.52614 28.8768 8.49478C28.6271 8.4205 28.3336 8.33318 28.2396 8.20197C27.9963 7.8872 27.8265 7.50703 27.6569 7.12735C27.6396 7.08844 27.6222 7.04953 27.6047 7.0107C27.5149 6.80561 27.4146 6.59639 27.3136 6.38598C27.2045 6.15857 27.0947 5.92977 26.9969 5.70328C26.9544 5.61052 26.9218 5.52267 26.8897 5.43618C26.8481 5.32407 26.8073 5.21425 26.7469 5.09896C26.0954 3.84557 25.1302 2.79616 23.9598 2.0576C23.5751 1.81792 23.1462 1.59585 22.6729 1.44447C22.5276 1.40095 22.3667 1.39407 22.2045 1.38712C22.0668 1.38123 21.9282 1.37529 21.7972 1.34688H21.6091C21.5009 1.31687 21.4046 1.23025 21.3151 1.14965C21.2718 1.11072 21.2301 1.0732 21.1893 1.04413C20.9128 0.857523 20.6358 0.733041 20.3045 0.599752C20.1885 0.546199 19.8577 0.422431 19.7419 0.519779C19.6707 0.53763 19.6343 0.564288 19.6168 0.635693C19.5453 0.742086 19.6077 0.902032 19.6522 0.999857C19.7414 1.18824 19.8537 1.32599 19.9689 1.46725C20.0276 1.53926 20.087 1.61218 20.1445 1.6932C20.1723 1.73232 20.2013 1.77232 20.2308 1.813C20.3621 1.99435 20.5032 2.18909 20.5913 2.37844C20.714 2.64283 20.802 2.92248 20.8896 3.20121C20.9669 3.44691 21.044 3.69189 21.1444 3.92507C21.2247 4.11215 21.351 4.32541 21.4663 4.49393C21.5028 4.54378 21.5505 4.5885 21.5988 4.63377C21.6802 4.71016 21.7634 4.78812 21.7972 4.89498C21.8839 5.03844 21.7249 5.44911 21.6279 5.69987C21.6048 5.75948 21.5852 5.81006 21.5733 5.84585C21.341 6.57466 21.386 7.5886 21.6536 8.2203C21.6634 8.24284 21.6732 8.26575 21.6829 8.28882C21.7812 8.52031 21.8866 8.76847 22.1454 8.83319L22.1806 8.81605C22.1939 8.71264 22.2052 8.61006 22.2164 8.50897C22.258 8.13125 22.2973 7.77433 22.4315 7.47222C22.4955 7.31598 22.6012 7.18963 22.7042 7.0664C22.7591 7.00078 22.8132 6.93603 22.8599 6.86813C22.9167 6.90205 22.9376 6.97883 22.9589 7.05761C22.9713 7.10322 22.9839 7.14949 23.0037 7.1885C23.0136 7.21206 23.0236 7.2358 23.0336 7.25971C23.1411 7.51552 23.2561 7.78952 23.3878 8.04202C23.6821 8.61112 24.0136 9.1626 24.3882 9.66077C24.5133 9.83833 24.6917 10.034 24.853 10.1942C24.8772 10.2152 24.9024 10.2333 24.9273 10.251C24.9754 10.2855 25.0221 10.3189 25.0579 10.3715H25.0756V10.3981C24.9054 10.3357 24.7749 10.2021 24.6475 10.0716C24.5743 9.99656 24.502 9.92256 24.4238 9.8638C24.0217 9.56223 23.539 9.10857 23.2618 8.67324C23.178 8.49245 23.0889 8.31678 22.9987 8.13908C22.9645 8.07161 22.9301 8.00384 22.8958 7.93539V7.91802C22.8615 7.96317 22.8563 8.00833 22.85 8.0632C22.8465 8.09394 22.8427 8.12772 22.8331 8.16627C22.8002 8.29268 22.7839 8.42413 22.7681 8.55121C22.7283 8.87087 22.692 9.16288 22.4038 9.27733C21.9488 9.46488 21.6087 8.97552 21.4661 8.75321C21.0104 8.01489 20.8848 6.77031 21.2063 5.76564C21.2312 5.68845 21.2486 5.60582 21.2659 5.52344C21.2985 5.36858 21.3309 5.21455 21.4123 5.09896C21.3941 4.99195 21.3327 4.9369 21.2724 4.88294C21.2422 4.85589 21.2123 4.82911 21.1884 4.79621C21.063 4.62769 20.9561 4.43204 20.858 4.24591C20.7149 3.968 20.6033 3.64942 20.495 3.34053C20.4611 3.2436 20.4274 3.14763 20.3933 3.05417C20.3626 2.97619 20.3426 2.89805 20.3229 2.82089C20.3023 2.74002 20.282 2.66025 20.2498 2.5829C20.1654 2.39911 20.0238 2.21503 19.893 2.04496C19.8592 2.00095 19.826 1.95787 19.7948 1.91598C19.76 1.86632 19.7139 1.80878 19.6626 1.74464C19.4105 1.42972 19.031 0.955745 19.2317 0.475032C19.6068 -0.440376 20.9198 0.252964 21.4297 0.572857C21.4805 0.605372 21.5343 0.652642 21.5899 0.701485C21.6711 0.772773 21.756 0.847413 21.8409 0.884419L22.5114 0.919645C22.5494 0.928532 22.5873 0.937268 22.6248 0.945947C23.0019 1.03304 23.3541 1.1144 23.6546 1.28452C25.1917 2.18303 26.1918 3.09844 27.1127 4.60984C27.2372 4.81286 27.3222 5.02609 27.4087 5.24319C27.4588 5.36893 27.5095 5.49597 27.5686 5.62307C27.7915 6.1398 28.0425 6.682 28.3008 7.17065C28.3331 7.2351 28.3635 7.30155 28.3939 7.36812C28.4727 7.54078 28.5518 7.71422 28.6675 7.85542C28.7091 7.91446 28.802 7.94597 28.8909 7.97612C28.9361 7.99142 28.9802 8.00638 29.016 8.02441C29.1322 8.08403 29.2579 8.13795 29.3845 8.19227C29.5798 8.27608 29.7774 8.36085 29.9458 8.46902C30.4639 8.78916 30.9653 9.17165 31.4202 9.56271C31.5121 9.64447 31.588 9.74414 31.6638 9.84376C31.7284 9.92859 31.7929 10.0134 31.8673 10.0871V10.1673C31.8507 10.1724 31.834 10.1775 31.8174 10.1825C31.6904 10.2215 31.5644 10.2602 31.4374 10.2917C31.2822 10.3314 31.1355 10.3469 30.9898 10.3622C30.8429 10.3777 30.6969 10.3931 30.5443 10.4331C30.5324 10.4366 30.5204 10.4401 30.5082 10.4437C30.328 10.4964 30.1118 10.5597 29.9276 10.5769L29.9458 10.595C30.0316 10.8377 30.3967 11.0468 30.6966 11.2186C30.802 11.279 30.8993 11.3347 30.9736 11.3857C31.3212 11.6342 31.6434 11.9367 31.9027 12.2832L32.1711 12.5408C32.2007 12.5834 32.2203 12.6321 32.2396 12.6801C32.2606 12.7324 32.2812 12.7837 32.3141 12.8254V12.8526C32.2347 12.8245 32.1806 12.7683 32.1272 12.7127C32.0958 12.6801 32.0647 12.6478 32.0288 12.6214C31.9441 12.5642 31.8597 12.5021 31.7754 12.44C31.6629 12.3572 31.5505 12.2744 31.4377 12.2035C31.2658 12.0953 31.0797 12.0099 30.8927 11.9241C30.7111 11.8408 30.5286 11.7572 30.3575 11.6518C30.1604 11.5273 29.9723 11.3859 29.785 11.2431C29.6145 11.1184 29.4277 10.8792 29.3205 10.7014C29.2934 10.659 29.2765 10.6135 29.2601 10.5697C29.2385 10.5118 29.218 10.4569 29.1768 10.4162C29.1907 10.29 29.3136 10.2582 29.4308 10.2279C29.4703 10.2176 29.5092 10.2076 29.543 10.1942ZM21.7959 2.26277C21.9153 2.2318 22.0383 2.21675 22.1617 2.21803C22.1901 2.24609 22.2252 2.26997 22.2606 2.29402C22.3153 2.33115 22.3706 2.36869 22.4025 2.42272C22.4227 2.45051 22.4355 2.47812 22.4484 2.50574C22.4643 2.5401 22.4803 2.57449 22.5104 2.60932C22.5104 2.82282 22.4477 2.96516 22.3217 3.05394L22.3045 3.07155C22.272 3.00602 22.2412 2.9407 22.2104 2.87537C22.1744 2.79879 22.1383 2.7222 22.0995 2.64526C22.0648 2.59701 22.0246 2.55262 21.9843 2.50801C21.9209 2.43798 21.8571 2.36743 21.8131 2.28062H21.7959V2.26277Z" fill="#5D87A1"/>
<path fill-rule="evenodd" clip-rule="evenodd" d="M30.9176 19.8803H30.7328L30.7324 19.1192H30.4808V18.9637H31.1594V19.1192H30.9176V19.8803ZM32.3142 19.8803H32.1395V19.1831L31.8972 19.8803H31.7716L31.5283 19.1831H31.5191V19.8803H31.3542V18.9639H31.6064L31.8386 19.5893L32.0522 18.9639H32.3142V19.8803Z" fill="#F8981D"/>
</svg>
