<!--
  - CloudLinux Software Inc 2019-2021 All Rights Reserved
  -
  - Licensed under the Apache License, Version 2.0 (the "License");
  - you may not use this file except in compliance with the License.
  - You may obtain a copy of the License at
  -
  -    http://www.apache.org/licenses/LICENSE-2.0
  -
  - Unless required by applicable law or agreed to in writing, software
  - distributed under the License is distributed on an "AS IS" BASIS,
  - WITHOUT WARRANTIES OR CONDITIONS OF ANY KIND, either express or implied.
  - See the License for the specific language governing permissions and
  - limitations under the License.
  -->

<svg width="22" height="22" viewBox="0 0 22 22" fill="none" xmlns="http://www.w3.org/2000/svg">
<path d="M21.0979 13.1785C20.9707 12.79 20.6377 12.5195 20.2069 12.4546C20.0038 12.424 19.7712 12.437 19.496 12.4942C19.0162 12.5941 18.6603 12.6321 18.4006 12.6395C19.381 10.9696 20.1783 9.06538 20.6372 7.27287C21.3794 4.37442 20.9828 3.05399 20.5194 2.45674C19.2929 0.875871 17.5035 0.0266149 15.3448 0.000629146C14.1932 -0.0135753 13.1822 0.215784 12.6549 0.380722C12.1638 0.293324 11.6359 0.244527 11.0819 0.235503C10.0434 0.218792 9.12593 0.447149 8.34194 0.916479C7.90791 0.768419 7.2113 0.559698 6.40685 0.426511C4.51483 0.113178 2.98992 0.357327 1.87452 1.15219C0.523883 2.11458 -0.102234 3.78669 0.0135634 6.12206C0.0503403 6.86353 0.461512 9.11953 1.10892 11.259C1.48099 12.4888 1.87775 13.51 2.28818 14.2946C2.87023 15.4072 3.49303 16.0623 4.19221 16.2976C4.58408 16.4293 5.29609 16.5215 6.04496 15.8924C6.13989 16.0083 6.26653 16.1236 6.4346 16.2306C6.64805 16.3664 6.90905 16.4773 7.16972 16.5431C8.1091 16.78 8.98901 16.7207 9.73971 16.3887C9.74435 16.5234 9.74791 16.652 9.75089 16.7632C9.75586 16.9434 9.76083 17.1201 9.76737 17.2854C9.81185 18.4029 9.88723 19.2718 10.1105 19.8797C10.1228 19.9131 10.1393 19.9641 10.1567 20.0182C10.2681 20.3622 10.4544 20.9383 10.9283 21.3894C11.4191 21.8567 12.0127 22 12.5564 22C12.8291 22 13.0893 21.9639 13.3175 21.9146C14.1309 21.7387 15.0547 21.4708 15.723 20.511C16.3548 19.6035 16.662 18.2368 16.7175 16.0834C16.7247 16.0225 16.7314 15.9643 16.7377 15.9089L16.751 15.7951L16.8998 15.8083L16.9382 15.8109C17.7667 15.849 18.7797 15.6718 19.4018 15.3802C19.8934 15.1501 21.4688 14.3112 21.0979 13.1785Z" fill="black"/>
<path d="M19.4762 13.5221C17.0306 14.0313 16.8625 13.1955 16.8625 13.1955C19.4445 9.32775 20.524 4.41822 19.5925 3.21663C17.0513 -0.0610642 12.6523 1.48909 12.5789 1.52926L12.5553 1.53358C12.0721 1.43231 11.5314 1.37204 10.9237 1.362C9.81717 1.34373 8.97776 1.65486 8.34079 2.14247C8.34079 2.14247 0.493488 -1.12103 0.858512 6.24687C0.936138 7.81429 3.08401 18.1069 5.64584 14.9981C6.5822 13.8612 7.48699 12.9001 7.48699 12.9001C7.9363 13.2014 8.47426 13.3551 9.0382 13.2999L9.08202 13.2624C9.06837 13.4035 9.07462 13.5416 9.09954 13.705C8.43955 14.4494 8.63354 14.58 7.31422 14.8542C5.9792 15.132 6.76344 15.6264 7.27549 15.7557C7.89625 15.9124 9.33234 16.1343 10.3027 14.7631L10.264 14.9195C10.5225 15.1287 10.7041 16.2795 10.6737 17.3229C10.6433 18.3662 10.623 19.0825 10.8266 19.642C11.0305 20.2015 11.2335 21.4603 12.9679 21.0852C14.4171 20.7717 15.1681 19.9592 15.2726 18.604C15.3467 17.6406 15.5145 17.783 15.5251 16.9216L15.6597 16.5139C15.8149 15.2078 15.6844 14.7865 16.5771 14.9825L16.7942 15.0017C17.4513 15.0319 18.3114 14.895 18.8162 14.6581C19.9031 14.149 20.5478 13.2987 19.476 13.5221H19.4762Z" fill="#336791"/>
<path fill-rule="evenodd" clip-rule="evenodd" d="M15.8151 6.49836C16.0691 6.46446 16.3368 6.50561 16.3579 6.64995C16.3673 6.71483 16.3159 6.81463 16.2271 6.90418C16.1688 6.96291 16.046 7.06483 15.8787 7.08707C15.8572 7.08998 15.8359 7.09132 15.8147 7.09132C15.564 7.09132 15.3523 6.89929 15.3359 6.7868C15.3153 6.64214 15.5613 6.53225 15.8151 6.49836ZM8.54223 6.71522C8.64313 6.64191 8.84255 6.61471 9.06276 6.64412V6.64419C9.33301 6.68022 9.61163 6.80296 9.58493 6.98711C9.56357 7.13413 9.32109 7.33333 9.05446 7.33333C9.03153 7.33333 9.00845 7.33191 8.98527 7.32876C8.82538 7.30748 8.66384 7.21083 8.55324 7.0702C8.51413 7.02053 8.45053 6.9242 8.46319 6.83709C8.46795 6.80422 8.48554 6.75645 8.54223 6.71522Z" fill="white"/>
<path fill-rule="evenodd" clip-rule="evenodd" d="M19.396 13.1756C19.8936 13.0723 20.1931 13.1633 20.2862 13.4464C20.4659 13.9933 19.475 14.6227 18.9259 14.8793C18.4371 15.1075 17.6576 15.2518 16.9821 15.2518C16.6582 15.2519 16.3587 15.2185 16.1259 15.1454C16.0157 16.1651 15.7812 18.0661 15.6446 18.8622C15.3893 20.3517 14.7293 21.0274 13.2096 21.3551C12.9509 21.4109 12.7157 21.4359 12.502 21.4359C11.0461 21.436 10.585 20.2769 10.3962 19.8023L10.3961 19.8021C10.1657 19.2226 10.0857 17.3206 10.1019 15.3903C9.57655 15.8682 8.9192 16.1151 8.17224 16.1151C7.8651 16.1151 7.54303 16.0736 7.20873 15.9894C7.11281 15.9653 6.27083 15.7379 6.28199 15.1964C6.29232 14.7012 6.99426 14.5554 7.25927 14.5003L7.25977 14.5002C8.19001 14.3076 8.25019 14.2307 8.53916 13.8618L8.53919 13.8617C8.60798 13.7731 8.67828 13.6858 8.75008 13.5996C8.74909 13.5888 8.74803 13.5778 8.74721 13.5668C8.33011 13.5556 7.9223 13.4437 7.55107 13.2432C6.9789 13.8578 6.42449 14.4888 5.88853 15.1355C5.44912 15.6669 5.02678 15.8231 4.68231 15.8231C4.54174 15.8231 4.41431 15.7972 4.30378 15.7601C3.35948 15.4432 2.46195 13.903 1.6363 11.1822C1.00906 9.11498 0.611582 6.95642 0.576708 6.25476C0.473071 4.16916 1.00808 2.69287 2.16696 1.86698C3.13817 1.1749 4.49916 0.964752 6.21183 1.24208C7.2025 1.40262 8.01256 1.68235 8.32601 1.79972C9.04761 1.30473 9.91921 1.0619 10.9275 1.07833C11.4774 1.0874 11.9824 1.15855 12.4457 1.27444C12.6657 1.17721 13.8006 0.831451 15.1437 0.846638C17.0975 0.867438 18.7115 1.62564 19.8112 3.03912C20.084 3.38975 20.2163 3.96372 20.2042 4.74479C20.1933 5.45644 20.06 6.32954 19.8186 7.26965C19.3089 9.2543 18.3642 11.3815 17.2158 13.1412C17.3895 13.2699 17.9186 13.4824 19.396 13.1756ZM16.5772 7.41558C16.6208 7.13033 16.662 6.85704 16.667 6.55602C15.4726 6.40687 14.9968 6.68388 14.8093 6.95328C14.1798 7.8584 15.4094 10.0765 15.9345 11.0238L15.9345 11.0238C16.0695 11.2671 16.167 11.4429 16.2119 11.5524C16.2585 11.6658 16.3119 11.7763 16.3719 11.8833C16.733 11.1102 16.6397 10.3267 16.5488 9.56572L16.5487 9.56508C16.5038 9.18849 16.4573 8.79913 16.4694 8.42462C16.4816 8.03958 16.5302 7.72238 16.5772 7.41558ZM15.2192 1.45619C16.9698 1.49506 18.3546 2.15381 19.335 3.41401C20.087 4.38062 19.2589 8.77888 16.8618 12.5733C16.8377 12.5424 16.8135 12.5117 16.7891 12.4811L16.7588 12.4429C17.3782 11.4139 17.2571 10.3958 17.1493 9.49317C17.105 9.12274 17.0631 8.77285 17.0738 8.44418C17.0848 8.09587 17.1306 7.79708 17.1749 7.50819C17.2293 7.1522 17.2847 6.78383 17.2694 6.34959C17.2808 6.30403 17.2854 6.25021 17.2794 6.18633C17.2404 5.76992 16.7678 4.52366 15.8045 3.39569C15.2775 2.77871 14.509 2.08827 13.4598 1.62259C13.9111 1.52849 14.5282 1.44075 15.2192 1.45619ZM4.4953 15.1831C4.6054 15.22 4.93962 15.3319 5.42353 14.7466C6.10772 13.9187 6.75046 13.2142 7.04619 12.8956C6.97131 12.8313 6.89964 12.7633 6.83145 12.6919C6.16704 11.9945 5.86458 11.0286 6.00178 10.0416C6.14947 8.97973 6.09419 8.04201 6.06448 7.53807L6.06447 7.53791L6.06414 7.53215C6.05627 7.39752 6.05053 7.29929 6.05069 7.22962C6.04642 7.04647 6.00548 4.05064 7.73161 2.29718C7.73991 2.28869 7.74846 2.28059 7.757 2.27249C7.76384 2.26601 7.77069 2.25953 7.7774 2.25285C6.72552 1.90809 4.10776 1.2283 2.51554 2.36403C1.53719 3.06198 1.08809 4.36073 1.18065 6.2243C1.21003 6.81354 1.5806 8.9149 2.21473 11.0046C2.94757 13.4197 3.7788 14.9427 4.49515 15.1831L4.4953 15.1831ZM7.26809 12.271C6.73259 11.7089 6.48938 10.9271 6.60073 10.1258C6.75663 9.00396 6.69911 8.02687 6.66818 7.50192L6.66751 7.49065L6.6675 7.49054C6.66343 7.42181 6.65985 7.36144 6.65775 7.31332C6.90991 7.0884 8.07848 6.45863 8.91184 6.6507C9.29209 6.73827 9.52381 6.99876 9.62015 7.44678C10.1187 9.76626 9.68616 10.7331 9.33858 11.51L9.33853 11.5101C9.2669 11.6701 9.1992 11.8214 9.14143 11.9779L9.09663 12.0989L9.09586 12.101L9.09584 12.101L9.09582 12.1011C8.98273 12.4062 8.87755 12.6899 8.8123 12.9593C8.243 12.9577 7.6892 12.713 7.26809 12.2709V12.271ZM6.95201 15.2248C7.03973 15.2849 7.18923 15.3575 7.35548 15.3992C8.16234 15.6024 9.28585 15.6163 10.0569 14.5304C10.1482 14.4017 10.1203 14.2363 10.0954 14.1491C10.0429 13.9646 9.91333 13.7968 9.78032 13.7415L9.78029 13.7415C9.6162 13.673 9.52569 13.6352 9.32786 13.8581L9.3277 13.8582C9.19485 14.0075 9.09893 14.13 9.01433 14.2381C8.64524 14.7095 8.4762 14.8694 7.38182 15.096C7.15567 15.1429 7.02528 15.1901 6.95201 15.2248ZM13.0829 20.7603C11.7441 21.0489 11.2701 20.3617 10.9577 19.5762C10.7561 19.0691 10.6569 16.7823 10.7272 14.2568C10.7282 14.2232 10.7234 14.1908 10.7142 14.1603C10.706 14.0999 10.6935 14.0403 10.6768 13.9818C10.5722 13.6143 10.3175 13.307 10.0118 13.1795L10.0118 13.1795C9.89035 13.1289 9.66749 13.0361 9.39966 13.105C9.45677 12.8683 9.55582 12.6009 9.66323 12.3115L9.70828 12.1897C9.75844 12.0539 9.82129 11.9133 9.88777 11.7646L9.88779 11.7645L9.88995 11.7597C10.2537 10.9468 10.7519 9.83348 10.2112 7.31827C10.0087 6.37617 9.33238 5.9161 8.30717 6.02298C7.69257 6.08695 7.13023 6.33639 6.84977 6.47943C6.78946 6.51013 6.73431 6.53984 6.68278 6.56873C6.76106 5.61953 7.05679 3.84561 8.16308 2.72324C8.85965 2.01671 9.7873 1.66773 10.9175 1.68655C13.1445 1.7232 14.5726 2.8728 15.3786 3.83083C16.0731 4.65631 16.4492 5.48788 16.5993 5.9364C15.4706 5.82093 14.703 6.04502 14.3138 6.60464C13.4673 7.82192 14.777 10.1845 15.4064 11.32L15.4064 11.32C15.5219 11.5281 15.6215 11.7079 15.6528 11.7844C15.8578 12.2841 16.1232 12.6177 16.3169 12.8612C16.3763 12.9358 16.4339 13.0082 16.4777 13.0714C16.1359 13.1705 15.5219 13.3996 15.5778 14.5445C15.5327 15.1189 15.2118 17.8086 15.0487 18.7588C14.8335 20.0142 14.3742 20.4818 13.0829 20.7604V20.7603ZM17.1811 14.6395C17.7367 14.6131 18.3217 14.4907 18.6713 14.3276C19.0778 14.1376 19.3645 13.9262 19.532 13.7686L19.5184 13.7713C18.2762 14.0293 17.3963 13.9939 16.903 13.6664C16.8721 13.646 16.844 13.6251 16.8183 13.604C16.7769 13.6186 16.7341 13.6307 16.6902 13.6431L16.6902 13.6431C16.4108 13.722 16.1468 13.7965 16.1813 14.51C16.2548 14.5703 16.5673 14.6684 17.1811 14.6395Z" fill="white"/>
</svg>
